<svg width="30" height="39" viewBox="0 0 30 39" fill="none" xmlns="http://www.w3.org/2000/svg">
<path d="M20.5687 8.1075C17.8837 5.4375 15.3337 2.88 14.5762 0C13.8262 2.88 11.2537 5.4375 8.57622 8.1075C4.55622 12.1275 0.00371559 16.68 0.00371559 23.505C-0.176284 31.5525 6.20622 38.22 14.2537 38.4C22.3012 38.58 28.9687 32.19 29.1412 24.1425C29.1487 23.9325 29.1487 23.7225 29.1412 23.505C29.1412 16.6725 24.5812 12.1275 20.5687 8.1075ZM7.49622 24.8325C7.05372 25.395 6.67122 26.0025 6.35622 26.6475C6.33372 26.7 6.29622 26.745 6.25872 26.7825C6.22122 26.82 6.16872 26.8425 6.10872 26.8575H5.98122C5.65872 26.8575 5.29122 26.22 5.29122 26.22C5.19372 26.07 5.10372 25.905 5.01372 25.74L4.95372 25.605C4.11372 23.6775 4.84122 20.9325 4.84122 20.9325C5.20122 19.5975 5.79372 18.33 6.58122 17.19C7.06122 16.47 7.59372 15.7725 8.15622 15.1125L8.84622 15.8025L12.1087 19.1325C12.1687 19.2 12.2062 19.29 12.2062 19.38C12.2062 19.47 12.1687 19.56 12.1087 19.6275L8.70372 23.4225L7.49622 24.8325ZM14.7412 34.38C13.7737 34.3725 12.8212 34.0875 12.0112 33.555C11.2012 33.0225 10.5562 32.2725 10.1662 31.3875C9.77622 30.5025 9.64122 29.52 9.79122 28.56C9.94122 27.6 10.3612 26.7075 11.0062 25.98C12.0712 24.7125 13.3687 23.4675 14.7787 21.8325C16.4512 23.6175 17.5462 24.84 18.6187 26.1825C18.7012 26.2875 18.7762 26.4 18.8437 26.5125C19.4287 27.345 19.7437 28.3425 19.7437 29.3625C19.7437 30.0225 19.6162 30.6675 19.3687 31.275C19.1212 31.8825 18.7537 32.4375 18.2887 32.9025C17.8237 33.3675 17.2762 33.735 16.6687 33.99C16.0612 34.245 15.4162 34.3725 14.7562 34.3725H14.7412V34.38ZM24.1987 26.37C24.1687 26.475 24.1087 26.565 24.0262 26.64C23.9437 26.715 23.8462 26.76 23.7412 26.775H23.6437C23.4487 26.7075 23.2762 26.5725 23.1712 26.3925C22.3012 25.08 21.3037 23.85 20.2087 22.7175L18.8737 21.3375L14.4412 16.74C13.5112 15.8775 12.6262 14.97 11.7862 14.0175C11.7637 13.98 11.7412 13.95 11.7187 13.9125C11.5687 13.7025 11.4487 13.47 11.3662 13.2225V13.0875C11.3062 12.7125 11.3362 12.33 11.4562 11.9625C11.5762 11.595 11.7862 11.2725 12.0562 11.01C12.9112 10.155 13.7812 9.285 14.5912 8.3925C15.4912 9.39 16.4512 10.3425 17.3962 11.2875C19.3312 13.0875 21.0787 15.075 22.6162 17.22C23.9137 19.0575 24.6187 21.255 24.6412 23.505C24.6337 24.4725 24.4762 25.44 24.1912 26.37H24.1987Z" fill="#0F1A3A"/>
</svg>
