<svg width="28" height="36" viewBox="0 0 28 36" fill="none" xmlns="http://www.w3.org/2000/svg">
<path d="M27.5974 21.7206C23.637 31.5459 14.1495 25.6019 14.1495 25.6019C11.2386 31.4813 6.43017 35.2619 0.881419 35.2834C-0.275769 35.2834 -0.311706 33.5297 0.881419 33.5297C5.51017 33.5081 9.54236 30.4606 12.1802 25.6162C9.22611 26.7591 3.65579 27.6216 0.565169 19.7081C8.39954 16.4809 12.0005 20.5131 13.3805 22.9784C14.092 21.2247 14.6024 19.32 14.933 17.25C14.933 17.25 4.89204 18.8241 4.18767 10.1991C12.748 6.75625 15.1558 15.7119 15.1558 15.7119C15.2708 14.5116 15.393 11.9312 15.393 11.8737C15.393 11.8737 7.75267 6.57656 12.6545 0C21.6102 3.09063 17.0677 11.6725 17.0677 11.6725C17.1036 11.7875 17.1036 13.3831 17.0677 14.0731C17.0677 14.0731 20.3164 7.67625 26.8714 9.94031C26.5695 19.5716 16.6724 17.5878 16.6724 17.5878C16.3561 19.5572 15.8674 21.4259 15.2349 23.1581C15.2349 23.1581 21.2005 16.56 27.5974 21.7206Z" fill="#0F1A3A"/>
</svg>
