<svg width="57" height="36" viewBox="0 0 57 36" fill="none" xmlns="http://www.w3.org/2000/svg">
<path d="M12.9935 0.0676537C8.75019 0.390247 4.55649 2.16451 1.18167 5.06784C0.0401887 6.03562 -0.183145 6.48228 0.127041 7.05302C0.251115 7.26395 0.759818 7.79747 1.25611 8.23173C3.66315 10.341 6.97593 12.016 10.1274 12.7232C11.6411 13.0582 12.1622 13.0334 12.4724 12.6364C12.6213 12.4502 12.733 12.1525 12.733 11.9664C12.733 11.3336 12.4104 11.1351 10.8222 10.7877C7.84445 10.1301 5.0776 8.80247 2.93111 7.0158L2.49686 6.65599L2.80704 6.32099C2.98074 6.13487 3.61352 5.65099 4.23389 5.24154C7.81963 2.83451 11.7404 1.77988 16.083 2.06525C19.222 2.26376 22.3859 3.3308 25.0287 5.09265C26.0461 5.76265 26.0461 5.75025 24.582 6.0108C23.2917 6.24654 20.9219 7.05302 19.5074 7.74784C12.9439 10.9614 8.44 17.7358 8.05537 24.9321C7.99334 26.2225 8.00574 26.3217 8.27871 26.6567L8.56408 27.0165L10.177 26.9421C13.5022 26.8056 16.9391 25.7138 19.7804 23.8899C21.2941 22.9097 21.5795 22.4134 21.0335 21.7186C20.6365 21.2099 20.1154 21.2843 19.0235 21.9915C16.6537 23.5425 13.7256 24.5971 10.847 24.9321L10.1274 25.0065V24.4358C10.1274 24.1132 10.2391 23.3067 10.3756 22.6491C11.8272 15.5273 17.15 9.91913 24.1106 8.1945C24.7806 8.03321 25.5002 7.87191 25.7235 7.83469L26.1082 7.76024L25.3513 8.90173C21.4678 14.7084 20.7606 22.066 23.4654 28.4558C24.2967 30.4162 25.2769 31.9795 26.7906 33.7786C28.1678 35.4164 28.54 35.4164 29.942 33.8282C32.287 31.1358 33.9 27.8478 34.5948 24.3614C34.843 23.0958 34.843 23.0089 34.6444 22.6988C34.2226 22.0536 33.3913 21.9791 33.0315 22.5499C32.9322 22.6988 32.7337 23.3936 32.5972 24.0884C32.2498 25.751 31.7163 27.2399 30.885 28.8528C30.215 30.1432 28.7013 32.3145 28.4035 32.4138C28.1678 32.4758 26.7161 30.4286 25.9593 28.9521C25.2024 27.5252 24.5324 25.6393 24.185 24.0015C24.0113 23.1827 23.9617 22.3886 23.9617 20.4034C23.9617 18.1949 23.9989 17.6862 24.247 16.5695C24.6069 14.9814 25.1404 13.4552 25.7856 12.1525C26.2943 11.1475 27.4854 9.23673 27.6219 9.23673C27.6591 9.23673 27.7832 9.75784 27.9072 10.403C28.9619 16.1477 32.8082 21.4828 38.0069 24.411C40.7365 25.9619 44.3595 26.9793 47.1015 26.9793C48.1561 26.9793 48.2182 26.9669 48.4663 26.6443C48.7269 26.3093 48.7393 26.2101 48.6772 24.6219C48.5407 21.4084 47.4613 18.0708 45.6126 15.2047C44.9922 14.2369 44.6572 13.9515 44.1733 13.9515C43.888 13.9515 43.2552 14.6339 43.2552 14.9317C43.2552 15.0806 43.6398 15.8375 44.1113 16.6191C45.0419 18.1577 45.8111 19.9815 46.2206 21.5821C46.5183 22.7484 46.8037 24.8328 46.692 24.9445C46.6548 24.9941 45.9104 24.9073 45.0543 24.7708C41.1335 24.1132 37.7711 22.3762 35.0043 19.5969C32.9198 17.5125 31.3813 15.0558 30.5004 12.3882C30.153 11.346 29.7311 9.59654 29.7311 9.1871C29.7311 9.07543 30.1033 9.26154 30.7609 9.70821C31.9644 10.5147 34.3591 11.6934 35.7363 12.1401C42.4983 14.361 50.1661 12.8349 55.5509 8.1945C56.5807 7.31358 56.8661 6.8545 56.68 6.37062C56.4691 5.86191 54.67 4.22413 53.3424 3.35562C51.2207 1.96599 49.1115 1.07265 46.5432 0.477097C45.3024 0.204136 44.6696 0.129692 42.8209 0.0800629C39.4709 -0.00679016 37.3493 0.365433 34.3839 1.55654C31.828 2.58636 31.0215 3.24395 31.3441 4.03802C31.6791 4.84451 32.1506 4.8321 33.8876 3.96358C38.925 1.46969 44.7689 1.37043 49.8683 3.70302C51.1091 4.26136 52.9206 5.40284 53.6402 6.07284L54.2357 6.63117L53.8015 7.0158C53.0446 7.67339 51.6674 8.56673 50.3895 9.21191C45.9476 11.4328 41.0343 11.7678 36.2202 10.1673C33.7759 9.34839 31.7659 8.15728 29.607 6.22173C27.8452 4.64599 26.9022 3.90154 25.7856 3.18191C22.0509 0.787285 17.5967 -0.29216 12.9935 0.0676537Z" fill="white"/>
</svg>
