<svg width="49" height="36" viewBox="0 0 49 36" fill="none" xmlns="http://www.w3.org/2000/svg">
<path d="M24.5 0C28.8947 0 32.4625 3.56781 32.4625 7.9625C32.4625 12.3572 28.8947 15.925 24.5 15.925C20.1053 15.925 16.5375 12.3572 16.5375 7.9625C16.5375 3.56781 20.1053 0 24.5 0ZM7.35 5.5125C10.3972 5.5125 12.8625 7.97781 12.8625 11.025C12.8625 14.0722 10.3972 16.5375 7.35 16.5375C4.30281 16.5375 1.8375 14.0722 1.8375 11.025C1.8375 7.97781 4.30281 5.5125 7.35 5.5125ZM0 30.625C0 25.212 4.38703 20.825 9.8 20.825C10.78 20.825 11.7294 20.9705 12.6252 21.2384C10.1062 24.0559 8.575 27.7769 8.575 31.85V33.075C8.575 33.9478 8.75875 34.7747 9.08797 35.525H2.45C1.09484 35.525 0 34.4302 0 33.075V30.625ZM39.912 35.525C40.2412 34.7747 40.425 33.9478 40.425 33.075V31.85C40.425 27.7769 38.8938 24.0559 36.3748 21.2384C37.2706 20.9705 38.22 20.825 39.2 20.825C44.613 20.825 49 25.212 49 30.625V33.075C49 34.4302 47.9052 35.525 46.55 35.525H39.912ZM36.1375 11.025C36.1375 7.97781 38.6028 5.5125 41.65 5.5125C44.6972 5.5125 47.1625 7.97781 47.1625 11.025C47.1625 14.0722 44.6972 16.5375 41.65 16.5375C38.6028 16.5375 36.1375 14.0722 36.1375 11.025ZM12.25 31.85C12.25 25.0819 17.7319 19.6 24.5 19.6C31.2681 19.6 36.75 25.0819 36.75 31.85V33.075C36.75 34.4302 35.6552 35.525 34.3 35.525H14.7C13.3448 35.525 12.25 34.4302 12.25 33.075V31.85Z" fill="#4F47E6"/>
</svg>
