<svg width="64" height="40" viewBox="0 0 64 40" fill="none" xmlns="http://www.w3.org/2000/svg">
<path d="M14.545 0.0757141C9.79499 0.436829 5.10054 2.42294 1.32277 5.67294C0.0449874 6.75627 -0.205013 7.25627 0.14221 7.89516C0.281099 8.13127 0.850543 8.72849 1.4061 9.2146C4.10054 11.5757 7.80888 13.4507 11.3367 14.2424C13.0311 14.6174 13.6144 14.5896 13.9617 14.1452C14.1283 13.9368 14.2533 13.6035 14.2533 13.3952C14.2533 12.6868 13.8922 12.4646 12.1144 12.0757C8.7811 11.3396 5.68388 9.85349 3.2811 7.85349L2.79499 7.45071L3.14221 7.07571C3.33665 6.86738 4.04499 6.32571 4.73943 5.86738C8.75332 3.17294 13.1422 1.99238 18.0033 2.31182C21.5172 2.53405 25.0589 3.72849 28.0172 5.70071C29.1561 6.45071 29.1561 6.43682 27.5172 6.72849C26.0728 6.99238 23.42 7.89516 21.8367 8.67294C14.4894 12.2702 9.44777 19.8535 9.01721 27.909C8.94777 29.3535 8.96165 29.4646 9.26721 29.8396L9.58665 30.2424L11.3922 30.159C15.1144 30.0063 18.9617 28.784 22.1422 26.7424C23.8367 25.6452 24.1561 25.0896 23.545 24.3118C23.1005 23.7424 22.5172 23.8257 21.295 24.6174C18.6422 26.3535 15.3644 27.534 12.1422 27.909L11.3367 27.9924V27.3535C11.3367 26.9924 11.4617 26.0896 11.6144 25.3535C13.2394 17.3813 19.1978 11.1035 26.9894 9.17294C27.7394 8.99238 28.545 8.81182 28.795 8.77016L29.2255 8.68682L28.3783 9.9646C24.0311 16.4646 23.2394 24.7007 26.2672 31.8535C27.1978 34.0479 28.295 35.7979 29.9894 37.8118C31.5311 39.6452 31.9478 39.6452 33.5172 37.8674C36.1422 34.8535 37.9478 31.1729 38.7255 27.2702C39.0033 25.8535 39.0033 25.7563 38.7811 25.409C38.3089 24.6868 37.3783 24.6035 36.9755 25.2424C36.8644 25.409 36.6422 26.1868 36.4894 26.9646C36.1005 28.8257 35.5033 30.4924 34.5728 32.2979C33.8228 33.7424 32.1283 36.1729 31.795 36.284C31.5311 36.3535 29.9061 34.0618 29.0589 32.409C28.2117 30.8118 27.4617 28.7007 27.0728 26.8674C26.8783 25.9507 26.8228 25.0618 26.8228 22.8396C26.8228 20.3674 26.8644 19.7979 27.1422 18.5479C27.545 16.7702 28.1422 15.0618 28.8644 13.6035C29.4339 12.4785 30.7672 10.3396 30.92 10.3396C30.9617 10.3396 31.1005 10.9229 31.2394 11.6452C32.42 18.0757 36.7255 24.0479 42.545 27.3257C45.6005 29.0618 49.6561 30.2007 52.7255 30.2007C53.9061 30.2007 53.9755 30.1868 54.2533 29.8257C54.545 29.4507 54.5589 29.3396 54.4894 27.5618C54.3367 23.9646 53.1283 20.2285 51.0589 17.0202C50.3644 15.9368 49.9894 15.6174 49.4478 15.6174C49.1283 15.6174 48.42 16.3813 48.42 16.7146C48.42 16.8813 48.8505 17.7285 49.3783 18.6035C50.42 20.3257 51.2811 22.3674 51.7394 24.159C52.0728 25.4646 52.3922 27.7979 52.2672 27.9229C52.2255 27.9785 51.3922 27.8813 50.4339 27.7285C46.045 26.9924 42.2811 25.0479 39.1839 21.9368C36.8505 19.6035 35.1283 16.8535 34.1422 13.8674C33.7533 12.7007 33.2811 10.7424 33.2811 10.284C33.2811 10.159 33.6978 10.3674 34.4339 10.8674C35.7811 11.7702 38.4617 13.0896 40.0033 13.5896C47.5728 16.0757 56.1561 14.3674 62.1839 9.17294C63.3367 8.18683 63.6561 7.67294 63.4478 7.13127C63.2117 6.56182 61.1978 4.72849 59.7117 3.75627C57.3367 2.20071 54.9755 1.20071 52.1005 0.53405C50.7117 0.228493 50.0033 0.145161 47.9339 0.0896034C44.1839 -0.00761795 41.8089 0.40905 38.4894 1.74238C35.6283 2.89516 34.7255 3.63127 35.0867 4.52016C35.4617 5.42294 35.9894 5.40905 37.9339 4.43682C43.5728 1.64516 50.1144 1.53405 55.8228 4.14516C57.2117 4.77016 59.2394 6.04794 60.045 6.79794L60.7117 7.42294L60.2255 7.85349C59.3783 8.5896 57.8367 9.5896 56.4061 10.3118C51.4339 12.7979 45.9339 13.1729 40.545 11.3813C37.8089 10.4646 35.5589 9.13127 33.1422 6.9646C31.17 5.20071 30.1144 4.36738 28.8644 3.56182C24.6839 0.881271 19.6978 -0.327061 14.545 0.0757141Z" fill="#101631"/>
</svg>
